<?xml version="1.0" encoding="UTF-8"?><svg xmlns="http://www.w3.org/2000/svg" viewBox="0 0 300.5 82.31"><defs><style>.e{fill:#e72166;}.e,.f{stroke-width:0px;}.f{fill:#1d1d1b;}</style></defs><g id="a"><polygon class="f" points="276.97 34.88 268.1 30.29 259.29 35 260.91 25.14 253.71 18.21 263.59 16.71 267.95 7.72 272.43 16.65 282.33 18.02 275.22 25.04 276.97 34.88"/><polygon class="e" points="41.44 76.47 32.56 71.88 23.75 76.59 25.37 66.73 18.17 59.8 28.05 58.3 32.41 49.31 36.89 58.24 46.79 59.61 39.68 66.63 41.44 76.47"/></g><g id="c"><path class="f" d="m36.8,28.55c0,1.24-.16,2.35-.47,3.33-.31.99-.73,1.86-1.24,2.61-.51.75-1.12,1.4-1.8,1.93-.69.53-1.4.96-2.14,1.3s-1.49.59-2.25.75c-.76.16-1.48.24-2.15.24H2.6v-6.26h24.14c1.2,0,2.14-.35,2.8-1.06.67-.71,1-1.65,1-2.84,0-.58-.09-1.11-.26-1.59-.18-.48-.43-.9-.76-1.25-.33-.35-.73-.63-1.2-.82-.47-.19-1-.29-1.58-.29h-14.39c-1.01,0-2.1-.18-3.27-.54-1.17-.36-2.26-.94-3.26-1.74-1-.8-1.84-1.85-2.5-3.15-.67-1.3-1-2.89-1-4.77s.33-3.46,1-4.75,1.5-2.34,2.5-3.15c1-.81,2.09-1.4,3.26-1.76,1.17-.36,2.26-.54,3.27-.54h21.3v6.26H12.35c-1.19,0-2.11.36-2.78,1.08-.67.72-1,1.68-1,2.86s.33,2.15,1,2.85c.67.7,1.59,1.05,2.78,1.05h14.44c.67.02,1.39.11,2.14.28.75.17,1.5.43,2.25.78.75.35,1.46.8,2.13,1.34.67.54,1.27,1.18,1.79,1.94.52.75.93,1.62,1.24,2.6s.46,2.09.46,3.32Z"/><path class="f" d="m48.3,18.3h21.97V4.2h6.26v34.51h-6.26v-14.1h-21.97v14.1h-6.26V4.2h6.26v14.1Z"/><path class="f" d="m117.71,38.71h-6.26v-8.47h-22v8.47h-6.26v-17.25c0-2.52.43-4.84,1.3-6.96s2.07-3.94,3.61-5.46c1.54-1.52,3.36-2.71,5.46-3.56,2.1-.85,4.4-1.28,6.88-1.28h14.1c.43,0,.84.08,1.23.24.38.16.72.39,1.01.67.29.29.51.63.67,1.01.16.39.24.79.24,1.23v31.36Zm-28.25-14.73h22v-13.52h-11c-.19,0-.6.03-1.21.08-.62.06-1.33.2-2.14.42-.81.23-1.66.57-2.56,1.03-.9.47-1.72,1.11-2.48,1.93s-1.38,1.84-1.87,3.07c-.49,1.23-.73,2.72-.73,4.46v2.53Z"/><path class="f" d="m159.46,15.8c0,1.43-.18,2.7-.53,3.83-.35,1.12-.83,2.11-1.43,2.97-.6.86-1.3,1.59-2.08,2.2-.79.61-1.61,1.11-2.47,1.5s-1.72.68-2.6.85c-.87.18-1.7.26-2.47.26l13.07,11.29h-9.67l-13.04-11.29h-4.5v-6.26h14.15c.79-.06,1.51-.23,2.15-.49.65-.26,1.21-.62,1.69-1.07.47-.45.84-.99,1.09-1.62.26-.63.38-1.36.38-2.18v-3.95c0-.35-.04-.62-.13-.81-.09-.18-.2-.32-.34-.41s-.28-.14-.43-.16c-.15-.02-.29-.02-.42-.02h-20.65v28.25h-6.26V7.35c0-.43.08-.84.24-1.23.16-.38.38-.72.66-1.01.28-.29.61-.51,1-.67.38-.16.8-.24,1.25-.24h23.75c1.39,0,2.57.25,3.54.76s1.74,1.14,2.35,1.9c.6.76,1.04,1.58,1.3,2.47.26.88.4,1.71.4,2.48v4Z"/><path class="f" d="m196.93,38.71h-22.57c-.87,0-1.81-.15-2.84-.46-1.03-.3-1.98-.81-2.85-1.5s-1.6-1.6-2.19-2.72c-.59-1.12-.88-2.48-.88-4.1V7.35c0-.43.08-.84.24-1.23.16-.38.38-.72.66-1.01.28-.29.61-.51,1-.67.38-.16.8-.24,1.25-.24h28.18v6.26h-25.08v19.47c0,.82.22,1.44.65,1.88.43.43,1.07.65,1.9.65h22.53v6.26Zm-2.82-14.1h-19.76v-6.31h19.76v6.31Z"/><path class="f" d="m237.41,24.27c0,2.1-.37,4.04-1.09,5.8-.73,1.77-1.74,3.29-3.02,4.56-1.28,1.28-2.81,2.27-4.57,3-1.76.72-3.68,1.08-5.75,1.08h-16.89c-.45,0-.87-.08-1.25-.24-.39-.16-.72-.38-1-.66-.28-.28-.5-.61-.66-1-.16-.38-.24-.8-.24-1.25V7.35c0-.43.08-.84.24-1.23.16-.38.38-.72.66-1.01.28-.29.61-.51,1-.67.38-.16.8-.24,1.25-.24h16.89c2.07,0,3.99.36,5.75,1.08,1.76.72,3.29,1.72,4.57,3,1.28,1.28,2.29,2.8,3.02,4.57.73,1.77,1.09,3.7,1.09,5.79v5.63Zm-6.26-5.63c0-1.22-.2-2.33-.59-3.34-.39-1.01-.95-1.87-1.67-2.59-.72-.71-1.58-1.27-2.59-1.66-1-.39-2.11-.59-3.33-.59h-13.79v22h13.79c1.22,0,2.33-.2,3.33-.59,1-.39,1.86-.95,2.59-1.66.72-.71,1.28-1.57,1.67-2.57.39-1,.59-2.12.59-3.36v-5.63Z"/><path class="e" d="m107.35,72.16c0,1.24-.16,2.35-.47,3.33-.31.99-.73,1.86-1.24,2.61-.51.75-1.12,1.4-1.8,1.93-.69.53-1.4.96-2.14,1.3s-1.49.59-2.25.75c-.76.16-1.48.24-2.15.24h-24.14v-6.26h24.14c1.2,0,2.14-.35,2.8-1.06.67-.71,1-1.65,1-2.84,0-.58-.09-1.11-.26-1.59-.18-.48-.43-.9-.76-1.25-.33-.35-.73-.63-1.2-.82-.47-.19-1-.29-1.58-.29h-14.39c-1.01,0-2.1-.18-3.27-.54-1.17-.36-2.26-.94-3.26-1.74-1-.8-1.84-1.85-2.5-3.15-.67-1.3-1-2.89-1-4.77s.33-3.46,1-4.75,1.5-2.34,2.5-3.15c1-.81,2.09-1.4,3.26-1.76,1.17-.36,2.26-.54,3.27-.54h21.3v6.26h-21.3c-1.19,0-2.11.36-2.78,1.08-.67.72-1,1.68-1,2.86s.33,2.15,1,2.85c.67.7,1.59,1.05,2.78,1.05h14.44c.67.02,1.39.11,2.14.28.75.17,1.5.43,2.25.78.75.35,1.46.8,2.13,1.34.67.54,1.27,1.18,1.79,1.94.52.75.93,1.62,1.24,2.6s.46,2.09.46,3.32Z"/><path class="e" d="m146.94,62.24c0,1.43-.18,2.7-.53,3.83s-.83,2.11-1.43,2.97c-.6.86-1.29,1.59-2.08,2.2-.79.61-1.61,1.11-2.47,1.49-.86.39-1.72.67-2.6.84-.88.18-1.7.26-2.47.26h-14.15v-6.26h14.15c.8-.06,1.53-.23,2.18-.49.65-.26,1.21-.62,1.67-1.07.47-.45.83-.99,1.08-1.62.26-.63.38-1.35.38-2.15v-2.84c-.08-.79-.25-1.51-.51-2.17-.26-.66-.61-1.22-1.05-1.68s-.97-.83-1.6-1.1c-.63-.26-1.35-.4-2.17-.4h-14.1c-.83,0-1.47.22-1.9.65s-.65,1.06-.65,1.88v25.73h-6.26v-25.73c0-1.6.29-2.97.88-4.09.58-1.12,1.32-2.03,2.19-2.72.87-.69,1.82-1.19,2.85-1.5,1.03-.31,1.97-.47,2.84-.47h14.15c1.41,0,2.68.18,3.8.54,1.12.36,2.11.84,2.97,1.44s1.59,1.3,2.19,2.08c.6.79,1.1,1.61,1.49,2.47s.68,1.72.85,2.6c.18.87.26,1.7.26,2.47v2.84Z"/><path class="e" d="m186.14,82.31h-6.26v-8.47h-22v8.47h-6.26v-17.25c0-2.52.43-4.84,1.3-6.96.87-2.12,2.07-3.94,3.61-5.46,1.54-1.52,3.36-2.71,5.46-3.56,2.1-.85,4.4-1.28,6.88-1.28h14.1c.43,0,.84.08,1.23.24.38.16.72.39,1.01.67.29.29.51.63.67,1.01.16.39.24.79.24,1.23v31.36Zm-28.25-14.73h22v-13.52h-11c-.19,0-.6.03-1.21.08-.62.06-1.33.2-2.14.42-.81.23-1.66.57-2.56,1.03-.9.47-1.72,1.11-2.48,1.93-.75.82-1.38,1.84-1.87,3.07-.49,1.23-.73,2.72-.73,4.46v2.53Z"/><path class="e" d="m224.31,82.31h-22.57c-.58,0-1.2-.07-1.87-.2-.67-.14-1.32-.35-1.97-.64s-1.27-.66-1.87-1.12c-.59-.46-1.12-1.01-1.58-1.66-.46-.65-.82-1.4-1.09-2.26-.27-.86-.41-1.83-.41-2.9v-16.94c0-.58.07-1.2.2-1.87.14-.67.35-1.32.64-1.97.29-.65.67-1.27,1.13-1.87.46-.59,1.02-1.12,1.67-1.58.65-.46,1.4-.82,2.25-1.1.85-.27,1.81-.41,2.89-.41h22.57v6.26h-22.57c-.82,0-1.44.22-1.88.65-.43.43-.65,1.07-.65,1.93v16.89c0,.8.22,1.42.66,1.86.44.44,1.06.66,1.87.66h22.57v6.26Z"/><path class="e" d="m261.42,82.31h-22.57c-.87,0-1.81-.15-2.84-.46-1.03-.3-1.98-.81-2.85-1.5s-1.6-1.6-2.19-2.72c-.59-1.12-.88-2.48-.88-4.1v-22.57c0-.43.08-.84.24-1.23.16-.38.38-.72.66-1.01.28-.29.61-.51,1-.67.38-.16.8-.24,1.25-.24h28.18v6.26h-25.08v19.47c0,.82.22,1.44.65,1.88.43.43,1.07.65,1.9.65h22.53v6.26Zm-2.82-14.1h-19.76v-6.31h19.76v6.31Z"/><path class="e" d="m300.5,72.16c0,1.24-.16,2.35-.47,3.33-.31.99-.73,1.86-1.24,2.61-.51.75-1.12,1.4-1.81,1.93-.69.53-1.4.96-2.14,1.3s-1.49.59-2.25.75c-.76.16-1.48.24-2.15.24h-24.14v-6.26h24.14c1.2,0,2.14-.35,2.8-1.06.67-.71,1-1.65,1-2.84,0-.58-.09-1.11-.26-1.59-.18-.48-.43-.9-.76-1.25-.33-.35-.73-.63-1.2-.82-.47-.19-1-.29-1.58-.29h-14.39c-1.01,0-2.1-.18-3.27-.54-1.17-.36-2.26-.94-3.26-1.74s-1.84-1.85-2.5-3.15c-.67-1.3-1-2.89-1-4.77s.33-3.46,1-4.75c.67-1.29,1.5-2.34,2.5-3.15,1-.81,2.09-1.4,3.26-1.76,1.17-.36,2.26-.54,3.27-.54h21.3v6.26h-21.3c-1.19,0-2.11.36-2.78,1.08-.67.72-1,1.68-1,2.86s.33,2.15,1,2.85c.67.7,1.59,1.05,2.78,1.05h14.44c.67.02,1.39.11,2.14.28s1.5.43,2.25.78c.75.35,1.46.8,2.13,1.34.67.54,1.27,1.18,1.79,1.94.52.75.93,1.62,1.24,2.6s.46,2.09.46,3.32Z"/></g></svg>